<?xml version="1.0" encoding="UTF-8"?>
<svg version="1.1" xmlns="http://www.w3.org/2000/svg" width="512" height="512">
<path d="M0 0 C1.16469315 -0.00860046 2.32938629 -0.01720093 3.52937317 -0.02606201 C4.80367188 -0.03032196 6.07797058 -0.03458191 7.3908844 -0.03897095 C8.74967659 -0.04687698 10.1084667 -0.05514624 11.46725464 -0.06375122 C15.92818714 -0.08992738 20.38912877 -0.10528082 24.85011292 -0.11953735 C26.3901781 -0.12490005 27.93024323 -0.13027756 29.4703083 -0.13566971 C35.88275942 -0.15729765 42.29520808 -0.1760292 48.70768642 -0.1872921 C57.87118401 -0.20349649 67.03425527 -0.23658924 76.1975922 -0.29369295 C82.65387343 -0.33254137 89.11004139 -0.35194268 95.56643635 -0.35721266 C99.41510522 -0.36084766 103.26331894 -0.37266802 107.11186028 -0.4053154 C110.74081177 -0.43565766 114.36903904 -0.44161652 117.99809074 -0.42993164 C119.94343279 -0.42960987 121.88873191 -0.45390365 123.83390808 -0.47930908 C137.59798741 -0.38309954 148.06824542 4.3725313 157.96339417 13.7359314 C166.07051131 22.32362507 169.45135386 32.49879486 169.41177368 44.02493286 C169.41305532 45.38375702 169.41305532 45.38375702 169.41436285 46.77003217 C169.41601267 49.81174513 169.41050437 52.85340319 169.40504456 55.89511108 C169.40476255 58.07301329 169.40492068 60.2509156 169.40548706 62.42881775 C169.40577452 68.3478219 169.39988612 74.26680587 169.3929131 80.18580532 C169.38667097 86.36911861 169.38607508 92.55243234 169.3848877 98.73574829 C169.38177692 110.44767994 169.37356694 122.15960227 169.36353821 133.87152982 C169.3522891 147.20389497 169.34686463 160.53626015 169.34184277 173.86862898 C169.33138413 201.29705804 169.31358865 228.72547818 169.29151917 256.15390015 C179.19151917 256.15390015 189.09151917 256.15390015 199.29151917 256.15390015 C199.24511292 251.45913452 199.19870667 246.7643689 199.15089417 241.92733765 C199.13044744 238.94684668 199.11119124 235.96644261 199.09620667 232.9859314 C199.07232749 228.25869713 199.0441284 223.53177381 198.98976135 218.80477905 C198.94618765 214.99221014 198.92235792 211.17997483 198.91201019 207.36717606 C198.90463936 205.91513444 198.8902456 204.46311036 198.86859894 203.0112114 C198.83940941 200.97162682 198.8355693 198.93340726 198.8374176 196.89364624 C198.82853516 195.734487 198.81965271 194.57532776 198.8105011 193.38104248 C199.54683277 188.44100535 201.71457323 185.4558365 205.52984619 182.30592346 C209.18859613 180.77968727 212.57823368 180.71414461 216.47828674 180.7215271 C217.69370148 180.70623962 217.69370148 180.70623962 218.93367004 180.69064331 C221.6012008 180.66054586 224.26837226 180.65125243 226.93605042 180.6421814 C228.78979686 180.62533229 230.64353189 180.60718173 232.49725342 180.58778381 C237.36829564 180.54030287 242.23929161 180.51048115 247.11048889 180.48434448 C252.08433671 180.45452939 257.05802516 180.40800229 262.03175354 180.36288452 C271.78492536 180.27687306 281.53812999 180.20951813 291.29151917 180.15390015 C291.79628532 179.12247894 291.79628532 179.12247894 292.31124878 178.07022095 C292.97884468 176.71800446 292.97884468 176.71800446 293.65992737 175.33847046 C294.09956314 174.44460632 294.53919891 173.55074219 294.99215698 172.62979126 C299.45745549 164.12131452 306.78097856 158.28642227 315.29151917 154.15390015 C315.95151917 153.81487671 316.61151917 153.47585327 317.29151917 153.1265564 C328.35430307 148.43783744 342.51135602 150.29734264 353.35011292 154.43515015 C354.66787505 154.99889865 355.98150513 155.57237401 357.29151917 156.15390015 C358.02000061 156.47616577 358.74848206 156.7984314 359.4990387 157.13046265 C403.15360722 176.91100974 403.15360722 176.91100974 409.29151917 190.15390015 C409.72511292 193.0562439 409.72511292 193.0562439 409.72901917 196.09140015 C409.75802307 197.5899353 409.75802307 197.5899353 409.78761292 199.1187439 C409.01833501 203.82527093 407.09271763 206.72338376 403.34596252 209.69906616 C400.95180262 211.36205838 398.5158713 212.92530126 396.04151917 214.46640015 C395.14908508 215.03254028 394.256651 215.59868042 393.33717346 216.18197632 C380.13078025 224.49030664 366.6168059 231.94640506 352.29151917 238.15390015 C351.4136676 238.53804077 350.53581604 238.9221814 349.63136292 239.31796265 C338.49342943 243.40632931 324.80537849 242.47881521 314.12745667 237.7046814 C302.71819768 231.46573399 297.12425328 223.81936837 291.29151917 212.15390015 C270.83151917 211.82390015 250.37151917 211.49390015 229.29151917 211.15390015 C229.29151917 226.00390015 229.29151917 240.85390015 229.29151917 256.15390015 C231.93151917 256.15390015 234.57151917 256.15390015 237.29151917 256.15390015 C244.74829074 258.64252929 251.08306685 262.43709877 255.29151917 269.15390015 C255.70144104 269.77522827 256.11136292 270.3965564 256.53370667 271.03671265 C260.38178055 278.01632252 260.5420644 286.41435059 259.29151917 294.15390015 C256.31791597 303.53703674 251.19381046 309.78172061 242.54566956 314.28573608 C235.8269203 317.18553324 228.70741045 316.65040662 221.53761292 316.54452515 C220.19651455 316.53863133 218.85540693 316.53455844 217.51429749 316.53231812 C212.58572948 316.51149338 207.65735949 316.45564846 202.72901917 316.40390015 C191.69464417 316.32140015 180.66026917 316.23890015 169.29151917 316.15390015 C169.29151917 341.23390015 169.29151917 366.31390015 169.29151917 392.15390015 C171.93151917 392.15390015 174.57151917 392.15390015 177.29151917 392.15390015 C186.62287232 395.26815371 192.97036112 400.27772488 197.41651917 408.96640015 C200.20115225 415.3937371 199.87478632 421.94757333 199.79151917 428.84140015 C199.80698792 430.1336853 199.82245667 431.42597046 199.83839417 432.75741577 C199.78934697 444.63296706 199.78934697 444.63296706 195.29151917 449.15390015 C191.7073034 451.67199726 189.31869086 452.52636125 184.95045471 452.49447632 C183.38940254 452.49413643 183.38940254 452.49413643 181.79681396 452.49378967 C180.68518387 452.47830582 179.57355377 452.46282196 178.42823792 452.4468689 C177.28111832 452.44262405 176.13399872 452.43837921 174.95211792 452.43400574 C171.29417795 452.41723498 167.63679217 452.3795845 163.97901917 452.34140015 C161.49660526 452.32635129 159.0141827 452.31266324 156.53175354 452.30038452 C150.45148685 452.26733664 144.37154261 452.21715255 138.29151917 452.15390015 C138.09498749 452.97043564 137.89845581 453.78697113 137.69596863 454.62825012 C137.43311066 455.70333328 137.17025269 456.77841644 136.89942932 457.88607788 C136.64102264 458.95011337 136.38261597 460.01414886 136.11637878 461.11042786 C135.04475637 465.06437716 133.55084641 468.59149748 131.66651917 472.21640015 C131.31734436 472.89339966 130.96816956 473.57039917 130.6084137 474.26791382 C122.08886472 490.2330713 108.23436787 501.92550068 91.29151917 508.15390015 C90.20097229 508.56511108 89.11042542 508.97632202 87.98683167 509.3999939 C67.67428902 515.93710395 45.86801381 513.05616767 27.07667542 503.56771851 C20.12788785 499.7932479 14.75079572 494.80931838 9.29151917 489.15390015 C8.18550354 488.09429077 8.18550354 488.09429077 7.05714417 487.01327515 C-0.88608689 478.94689322 -9.70848083 463.728772 -9.70848083 452.15390015 C-10.34661713 452.16278259 -10.98475342 452.17166504 -11.64222717 452.18081665 C-18.29328948 452.26941761 -24.9441837 452.32968759 -31.59568787 452.37362671 C-34.07687695 452.39372256 -36.55801878 452.42100398 -39.03904724 452.45565796 C-42.60866465 452.50426308 -46.177655 452.52688987 -49.74754333 452.54452515 C-50.85401215 452.56517029 -51.96048096 452.58581543 -53.10047913 452.60708618 C-59.10811399 452.60883037 -63.11233309 452.46399587 -67.70848083 448.15390015 C-72.15971912 442.48123877 -71.26062018 435.98814452 -71.27098083 429.09140015 C-71.30771912 427.83134155 -71.3444574 426.57128296 -71.38230896 425.27304077 C-71.42717802 415.6261936 -69.43733 407.5720145 -62.96482849 400.15609741 C-57.93048994 395.33563599 -51.55185187 392.03680855 -44.55198669 392.11239624 C-43.28362976 392.12609253 -42.01527283 392.13978882 -40.70848083 392.15390015 C-40.71037944 391.40343534 -40.71227804 390.65297054 -40.71423417 389.87976438 C-40.82617794 345.379435 -40.91194059 300.87912096 -40.96380748 256.37867894 C-40.97006085 251.03283772 -40.97653248 245.68699679 -40.98313904 240.34115601 C-40.98445059 239.27691657 -40.98576214 238.21267713 -40.98711344 237.11618801 C-41.00885695 219.89486621 -41.04827269 202.67362806 -41.09424482 185.45235584 C-41.14103875 167.7755143 -41.16878245 150.09871651 -41.17892331 132.42181557 C-41.18577636 121.51835458 -41.20740392 110.61513002 -41.24806317 99.71174183 C-41.27453777 92.23006927 -41.28247114 84.74851856 -41.27598772 77.26680259 C-41.27279217 72.95323743 -41.27761446 68.6400848 -41.30450821 64.3265934 C-41.32899482 60.37010783 -41.32996987 56.41430881 -41.31297531 52.4577904 C-41.31087765 51.03359767 -41.3170897 49.60936057 -41.33289675 48.18525402 C-41.48788903 33.34738745 -37.29569921 22.22878771 -27.12644958 11.48202515 C-19.78113322 4.54776055 -10.08067818 0.05551546 0 0 Z " fill="#EDF5FF" transform="translate(86.70848083496094,-0.153900146484375)"/>
<path d="M0 0 C0.72848145 0.32226562 1.45696289 0.64453125 2.20751953 0.9765625 C45.86208805 20.7571096 45.86208805 20.7571096 52 34 C52.43359375 36.90234375 52.43359375 36.90234375 52.4375 39.9375 C52.46650391 41.43603516 52.46650391 41.43603516 52.49609375 42.96484375 C51.72681584 47.67137079 49.80119846 50.56948362 46.05444336 53.54516602 C43.66028346 55.20815823 41.22435214 56.77140112 38.75 58.3125 C37.85756592 58.87864014 36.96513184 59.44478027 36.0456543 60.02807617 C22.83926109 68.3364065 9.32528673 75.79250491 -5 82 C-5.87785156 82.38414062 -6.75570313 82.76828125 -7.66015625 83.1640625 C-18.79808973 87.25242916 -32.48614067 86.32491506 -43.1640625 81.55078125 C-54.57332149 75.31183384 -60.16726589 67.66546822 -66 56 C-86.46 55.67 -106.92 55.34 -128 55 C-128 69.85 -128 84.7 -128 100 C-125.36 100 -122.72 100 -120 100 C-112.54322842 102.48862915 -106.20845231 106.28319862 -102 113 C-101.38511719 113.93199219 -101.38511719 113.93199219 -100.7578125 114.8828125 C-96.90973861 121.86242238 -96.74945476 130.26045045 -98 138 C-100.9736032 147.3831366 -106.09770871 153.62782047 -114.74584961 158.13183594 C-121.46459887 161.03163309 -128.58410871 160.49650647 -135.75390625 160.390625 C-137.09500462 160.38473118 -138.43611223 160.38065829 -139.77722168 160.37841797 C-144.70578968 160.35759323 -149.63415968 160.30174832 -154.5625 160.25 C-165.596875 160.1675 -176.63125 160.085 -188 160 C-188 185.08 -188 210.16 -188 236 C-185.36 236 -182.72 236 -180 236 C-170.66864684 239.11425356 -164.32115805 244.12382473 -159.875 252.8125 C-157.09036692 259.23983695 -157.41673284 265.79367319 -157.5 272.6875 C-157.48453125 273.97978516 -157.4690625 275.27207031 -157.453125 276.60351562 C-157.50217219 288.47906691 -157.50217219 288.47906691 -162 293 C-165.58421576 295.51809711 -167.97282831 296.37246111 -172.34106445 296.34057617 C-173.90211662 296.34023628 -173.90211662 296.34023628 -175.4947052 296.33988953 C-176.6063353 296.32440567 -177.71796539 296.30892181 -178.86328125 296.29296875 C-180.01040085 296.28872391 -181.15752045 296.28447906 -182.33940125 296.28010559 C-185.99734121 296.26333484 -189.654727 296.22568435 -193.3125 296.1875 C-195.79491391 296.17245114 -198.27733647 296.15876309 -200.75976562 296.14648438 C-206.84003231 296.11343649 -212.91997656 296.0632524 -219 296 C-219.19653168 296.81653549 -219.39306335 297.63307098 -219.59555054 298.47434998 C-219.85840851 299.54943314 -220.12126648 300.6245163 -220.39208984 301.73217773 C-220.65049652 302.79621323 -220.9089032 303.86024872 -221.17514038 304.95652771 C-222.24676279 308.91047701 -223.74067275 312.43759733 -225.625 316.0625 C-225.9741748 316.73949951 -226.32334961 317.41649902 -226.68310547 318.11401367 C-235.20265445 334.07917115 -249.0571513 345.77160054 -266 352 C-267.09054687 352.41121094 -268.18109375 352.82242187 -269.3046875 353.24609375 C-289.61723015 359.7832038 -311.42350536 356.90226753 -330.21484375 347.41381836 C-337.16363132 343.63934775 -342.54072344 338.65541823 -348 333 C-349.10601562 331.94039063 -349.10601562 331.94039063 -350.234375 330.859375 C-358.17760605 322.79299308 -367 307.57487185 -367 296 C-367.63813629 296.00888245 -368.27627258 296.01776489 -368.93374634 296.0269165 C-375.58480865 296.11551746 -382.23570287 296.17578744 -388.88720703 296.21972656 C-391.36839611 296.23982241 -393.84953795 296.26710384 -396.33056641 296.30175781 C-399.90018382 296.35036294 -403.46917416 296.37298972 -407.0390625 296.390625 C-408.14553131 296.41127014 -409.25200012 296.43191528 -410.39199829 296.45318604 C-416.39963315 296.45493023 -420.40385225 296.31009572 -425 292 C-429.45123829 286.32733862 -428.55213934 279.83424437 -428.5625 272.9375 C-428.59923828 271.67744141 -428.63597656 270.41738281 -428.67382812 269.11914062 C-428.7186787 259.47626613 -426.70483546 251.57408422 -420.37597656 244.07592773 C-412.87791706 237.07766658 -404.5611753 235.40611428 -394.60522461 235.54589844 C-393.5017569 235.54531433 -392.39828918 235.54473022 -391.26138306 235.54412842 C-387.64137487 235.54689838 -384.02220676 235.57794021 -380.40234375 235.609375 C-377.88172353 235.61684122 -375.36109748 235.62253235 -372.84046936 235.62652588 C-366.90137719 235.64019864 -360.96255118 235.67167165 -355.02359539 235.71192384 C-348.2569313 235.75678109 -341.49025228 235.77866346 -334.72347629 235.79870558 C-320.81548655 235.84040891 -306.90775964 235.91067326 -293 236 C-293.00276538 235.12700791 -293.00553076 234.25401583 -293.00837994 233.35456944 C-293.07468164 212.09620601 -293.12430098 190.83786044 -293.15543652 169.57941532 C-293.17089428 159.2989181 -293.19196299 149.01848998 -293.22631836 138.73803711 C-293.25625406 129.77583486 -293.27558293 120.81368265 -293.28226548 111.85143179 C-293.28617067 107.10758259 -293.29532571 102.36387656 -293.31719017 97.62007332 C-293.33762122 93.15086778 -293.34382045 88.68186377 -293.33932304 84.21261597 C-293.34014529 82.5764144 -293.34607142 80.94020577 -293.35761642 79.30404472 C-293.43777502 67.35317247 -292.77787364 57.04444681 -284 48 C-276.93095359 42.19282344 -269.87124905 39.4539343 -260.6796875 39.69140625 C-250.87028841 40.82106008 -243.74080979 45.34321129 -237.50390625 52.78515625 C-233.56662739 58.66186624 -233.08887166 65.12922015 -232.15405273 71.96850586 C-230.98508992 80.07453988 -228.84499847 86.63272135 -222.75 92.375 C-214.76006582 98.27366108 -207.56102329 99.59832169 -197.74609375 99.609375 C-196.60463394 99.62591125 -195.46317413 99.64244751 -194.28712463 99.65948486 C-190.67052719 99.70775305 -187.05434962 99.72928963 -183.4375 99.75 C-180.97328641 99.77817725 -178.5090922 99.80810711 -176.04492188 99.83984375 C-170.03002361 99.91350642 -164.0152424 99.96527279 -158 100 C-158.00888245 99.18647064 -158.01776489 98.37294128 -158.0269165 97.53475952 C-158.10718162 89.85483465 -158.16802458 82.17511416 -158.20724869 74.49487877 C-158.22809247 70.54669627 -158.25635049 66.59886137 -158.30175781 62.65087891 C-158.34533152 58.83830999 -158.36916124 55.02607468 -158.37950897 51.21327591 C-158.38687981 49.76123429 -158.40127356 48.30921021 -158.42292023 46.85731125 C-158.45210976 44.81772667 -158.45594986 42.77950711 -158.45410156 40.73974609 C-158.46298401 39.58058685 -158.47186646 38.42142761 -158.48101807 37.22714233 C-157.74468639 32.2871052 -155.57694594 29.30193635 -151.76167297 26.15202332 C-148.10292303 24.62578712 -144.71328549 24.56024446 -140.81323242 24.56762695 C-139.59781769 24.55233948 -139.59781769 24.55233948 -138.35784912 24.53674316 C-135.69031836 24.50664571 -133.0231469 24.49735228 -130.35546875 24.48828125 C-128.50172231 24.47143214 -126.64798727 24.45328159 -124.79426575 24.43388367 C-119.92322352 24.38640272 -115.05222756 24.35658101 -110.18103027 24.33044434 C-105.20718246 24.30062924 -100.233494 24.25410215 -95.25976562 24.20898438 C-85.50659381 24.12297291 -75.75338918 24.05561798 -66 24 C-65.49523384 22.9685788 -65.49523384 22.9685788 -64.98027039 21.9163208 C-64.31267448 20.56410431 -64.31267448 20.56410431 -63.6315918 19.18457031 C-63.19195602 18.29070618 -62.75232025 17.39684204 -62.29936218 16.47589111 C-57.83406367 7.96741438 -50.5105406 2.13252212 -42 -2 C-41.34 -2.33902344 -40.68 -2.67804688 -40 -3.02734375 C-27.40265189 -8.36645418 -11.94910113 -5.30430545 0 0 Z " fill="#B5DBFE" transform="translate(444,156)"/>
<path d="M0 0 C0.92210587 -0.00765109 1.84421173 -0.01530219 2.7942602 -0.02318513 C5.86174948 -0.04370337 8.92848006 -0.03588865 11.99601746 -0.02792358 C14.20445442 -0.03662452 16.41288536 -0.04699305 18.62130737 -0.05889893 C24.60492871 -0.08563116 30.58829701 -0.08684155 36.57196641 -0.08177233 C41.57427325 -0.07962944 46.57652925 -0.0894086 51.57882518 -0.09898317 C64.05898214 -0.12242414 76.53901659 -0.12073295 89.01917412 -0.10786955 C99.83560439 -0.09753658 110.65167413 -0.12003275 121.46803311 -0.15806599 C132.59676313 -0.196895 143.72534681 -0.21274034 154.85414809 -0.20581949 C161.0931178 -0.20220011 167.33175737 -0.20740251 173.57067299 -0.23524857 C179.44044094 -0.26046764 185.30948953 -0.25645923 191.1792469 -0.23042679 C193.32698056 -0.22570942 195.47476534 -0.23111382 197.62244034 -0.24767303 C220.57372529 -0.41180141 220.57372529 -0.41180141 230.38799763 8.26189232 C238.42284152 16.51392013 239.05163641 26.19664679 238.91862488 37.20889282 C238.93409363 38.50117798 238.94956238 39.79346313 238.96549988 41.12490845 C238.91645269 53.00045973 238.91645269 53.00045973 234.41862488 57.52139282 C230.83440912 60.03948993 228.44579657 60.89385393 224.07756042 60.86196899 C222.51650826 60.8616291 222.51650826 60.8616291 220.92391968 60.86128235 C219.81228958 60.84579849 218.70065948 60.83031464 217.55534363 60.81436157 C215.83466423 60.80799431 215.83466423 60.80799431 214.07922363 60.80149841 C210.42128367 60.78472766 206.76389788 60.74707718 203.10612488 60.70889282 C200.62371097 60.69384397 198.14128841 60.68015591 195.65885925 60.6678772 C189.57859256 60.63482931 183.49864832 60.58464522 177.41862488 60.52139282 C177.12382736 61.74619606 177.12382736 61.74619606 176.82307434 62.9957428 C176.42878738 64.60836754 176.42878738 64.60836754 176.02653503 66.25357056 C175.76812836 67.31760605 175.50972168 68.38164154 175.2434845 69.47792053 C174.17186208 73.43186984 172.67795213 76.95899015 170.79362488 80.58389282 C170.44445007 81.26089233 170.09527527 81.93789185 169.73551941 82.63540649 C161.21597043 98.60056397 147.36147358 110.29299336 130.41862488 116.52139282 C129.328078 116.93260376 128.23753113 117.3438147 127.11393738 117.76748657 C106.80139473 124.30459662 84.99511952 121.42366035 66.20378113 111.93521118 C59.25499356 108.16074057 53.87790144 103.17681105 48.41862488 97.52139282 C47.68128113 96.81498657 46.94393738 96.10858032 46.18424988 95.38076782 C38.24101882 87.3143859 29.41862488 72.09626467 29.41862488 60.52139282 C28.78048859 60.53027527 28.14235229 60.53915771 27.48487854 60.54830933 C20.83381623 60.63691028 14.18292201 60.69718026 7.53141785 60.74111938 C5.05022877 60.76121523 2.56908693 60.78849666 0.08805847 60.82315063 C-3.48155894 60.87175576 -7.05054928 60.89438255 -10.62043762 60.91201782 C-11.72690643 60.93266296 -12.83337524 60.95330811 -13.97337341 60.97457886 C-19.98100828 60.97632305 -23.98522738 60.83148855 -28.58137512 56.52139282 C-33.03261341 50.84873144 -32.13351446 44.35563719 -32.14387512 37.45889282 C-32.1806134 36.19883423 -32.21735168 34.93877563 -32.25520325 33.64053345 C-32.30005383 23.99765896 -30.28621058 16.09547704 -23.95735168 8.59732056 C-17.10996625 2.20636148 -9.16491079 -0.08198599 0 0 Z " fill="#FABD2B" transform="translate(47.58137512207031,391.4786071777344)"/>
<path d="M0 0 C1.09272217 0.48339844 1.09272217 0.48339844 2.20751953 0.9765625 C45.86208805 20.7571096 45.86208805 20.7571096 52 34 C52.43359375 36.90234375 52.43359375 36.90234375 52.4375 39.9375 C52.45683594 40.93652344 52.47617187 41.93554688 52.49609375 42.96484375 C51.72681584 47.67137079 49.80119846 50.56948362 46.05444336 53.54516602 C43.66028346 55.20815823 41.22435214 56.77140112 38.75 58.3125 C37.85756592 58.87864014 36.96513184 59.44478027 36.0456543 60.02807617 C22.83926109 68.3364065 9.32528673 75.79250491 -5 82 C-5.87785156 82.38414062 -6.75570312 82.76828125 -7.66015625 83.1640625 C-18.79808973 87.25242916 -32.48614067 86.32491506 -43.1640625 81.55078125 C-54.57332149 75.31183384 -60.16726589 67.66546822 -66 56 C-86.46 55.67 -106.92 55.34 -128 55 C-128 69.85 -128 84.7 -128 100 C-137.9 100 -147.8 100 -158 100 C-158.16043524 83.76930182 -158.16043524 83.76930182 -158.1953125 76.83203125 C-158.21919167 72.10479698 -158.24739076 67.37787367 -158.30175781 62.65087891 C-158.34533152 58.83830999 -158.36916124 55.02607468 -158.37950897 51.21327591 C-158.38687981 49.76123429 -158.40127356 48.30921021 -158.42292023 46.85731125 C-158.45210976 44.81772667 -158.45594986 42.77950711 -158.45410156 40.73974609 C-158.46742523 39.00100723 -158.46742523 39.00100723 -158.48101807 37.22714233 C-157.74468639 32.2871052 -155.57694594 29.30193635 -151.76167297 26.15202332 C-148.10292303 24.62578712 -144.71328549 24.56024446 -140.81323242 24.56762695 C-140.00295593 24.5574353 -139.19267944 24.54724365 -138.35784912 24.53674316 C-135.69031836 24.50664571 -133.0231469 24.49735228 -130.35546875 24.48828125 C-128.50172231 24.47143214 -126.64798727 24.45328159 -124.79426575 24.43388367 C-119.92322352 24.38640272 -115.05222756 24.35658101 -110.18103027 24.33044434 C-105.20718246 24.30062924 -100.233494 24.25410215 -95.25976562 24.20898438 C-85.50659381 24.12297291 -75.75338918 24.05561798 -66 24 C-65.66348923 23.31238586 -65.32697845 22.62477173 -64.98027039 21.9163208 C-64.53520645 21.01484314 -64.09014252 20.11336548 -63.6315918 19.18457031 C-63.19195602 18.29070618 -62.75232025 17.39684204 -62.29936218 16.47589111 C-57.83406367 7.96741438 -50.5105406 2.13252212 -42 -2 C-41.34 -2.33902344 -40.68 -2.67804688 -40 -3.02734375 C-27.40265189 -8.36645418 -11.94910113 -5.30430545 0 0 Z " fill="#F9BD2C" transform="translate(444,156)"/>
<path d="M0 0 C0.33 0 0.66 0 1 0 C1.07476562 0.680625 1.14953125 1.36125 1.2265625 2.0625 C3.54536545 19.15798845 10.98061749 34.81087181 22 48 C22.52078125 48.66644531 23.0415625 49.33289063 23.578125 50.01953125 C37.61509516 67.29318142 58.9235346 74.78470692 80 79 C88.25 79.33 96.5 79.66 105 80 C105 105.08 105 130.16 105 156 C70.35 156 35.7 156 0 156 C0 104.52 0 53.04 0 0 Z " fill="#D4E7FE" transform="translate(151,236)"/>
<path d="M0 0 C0.91785782 -0.00058411 1.83571564 -0.00116821 2.78138733 -0.00177002 C5.7954883 0.00100218 8.80858295 0.03205336 11.82250977 0.06347656 C13.92000285 0.07094202 16.01750293 0.07663351 18.11500549 0.08062744 C23.62083377 0.09585967 29.12623628 0.13512096 34.63189697 0.17944336 C41.24568636 0.22766431 47.85961855 0.24594153 54.47353363 0.26925659 C64.50812338 0.30797312 74.54177993 0.38464436 84.57641602 0.45410156 C84.57641602 30.15410156 84.57641602 59.85410156 84.57641602 90.45410156 C73.74829102 90.51597656 62.92016602 90.57785156 51.76391602 90.64160156 C48.36618896 90.66891357 44.96846191 90.69622559 41.46777344 90.72436523 C38.74748082 90.73313451 36.02718424 90.7407774 33.30688477 90.74707031 C32.26906609 90.75883049 32.26906609 90.75883049 31.21028137 90.77082825 C17.27004811 90.92066488 6.89586255 88.86840063 -4.42358398 80.45410156 C-5.07198242 79.97585937 -5.72038086 79.49761719 -6.38842773 79.00488281 C-10.75113838 75.23573824 -13.21154527 70.51795718 -15.79858398 65.45410156 C-16.14493896 64.77742432 -16.49129395 64.10074707 -16.84814453 63.40356445 C-17.16952393 62.7396167 -17.49090332 62.07566895 -17.82202148 61.39160156 C-18.1073877 60.8025 -18.39275391 60.21339844 -18.68676758 59.60644531 C-20.68178241 53.77872804 -20.60525396 47.57791337 -20.66186523 41.48535156 C-20.66993698 40.64621216 -20.67800873 39.80707275 -20.68632507 38.94250488 C-20.7000814 37.17767351 -20.71084086 35.41281648 -20.71875 33.64794922 C-20.7303065 31.85197087 -20.75081584 30.05602784 -20.78027344 28.26025391 C-20.82304585 25.64755228 -20.83912632 23.0358602 -20.84936523 20.42285156 C-20.86687332 19.62786255 -20.88438141 18.83287354 -20.90242004 18.01379395 C-20.88053454 12.34571278 -19.8724122 9.01668302 -16.42358398 4.45410156 C-10.8441605 0.49790847 -6.73902051 -0.11350933 0 0 Z " fill="#29376D" transform="translate(171.423583984375,59.5458984375)"/>
<path d="M0 0 C0.33 0 0.66 0 1 0 C1.185625 1.19625 1.37125 2.3925 1.5625 3.625 C4.25703696 15.40663056 10.08566656 25.03477322 20 32 C30.79750543 38.63205326 41.07144782 39.31635147 53.4375 39.4140625 C54.74654297 39.43170654 56.05558594 39.44935059 57.40429688 39.4675293 C62.26940892 39.5303431 67.13472218 39.57670429 72 39.625 C82.89 39.74875 93.78 39.8725 105 40 C105 74.98 105 109.96 105 146 C78.12418301 146 78.12418301 146 68.87109375 138.20703125 C62.03310533 131.28338953 60.10285837 122.85532044 59.125 113.4375 C58.08182509 104.58849901 55.14156391 98.25345051 48.1875 92.5625 C41.00286052 87.75001852 33.58708643 86.02481037 25 87 C17.33884512 88.52714051 10.87422823 92.10104693 6.203125 98.4375 C3.59798324 102.60572681 1.75915132 106.10478289 1 111 C0.67 111 0.34 111 0 111 C0 74.37 0 37.74 0 0 Z " fill="#D4E7FD" transform="translate(151,110)"/>
<path d="M0 0 C27.71964378 -0.24065286 27.71964378 -0.24065286 39.58203125 -0.29296875 C47.66023778 -0.328765 55.73803756 -0.37009351 63.81591797 -0.45263672 C70.33229298 -0.51807371 76.84822796 -0.55375811 83.36490631 -0.56926346 C85.84470796 -0.58030596 88.32448692 -0.60186926 90.80410004 -0.63438034 C117.18177866 -0.96631239 117.18177866 -0.96631239 126.95404053 7.74111938 C133.92483045 14.82653421 135.50717548 23.16461892 135.546875 32.80664062 C135.53140625 34.08732422 135.5159375 35.36800781 135.5 36.6875 C135.52320313 38.62592773 135.52320313 38.62592773 135.546875 40.60351562 C135.49782781 52.47906691 135.49782781 52.47906691 131 57 C127.40386136 59.52749526 124.99749672 60.37387088 120.61528015 60.36076355 C119.01469505 60.36694954 119.01469505 60.36694954 117.3817749 60.3732605 C116.22155823 60.36247467 115.06134155 60.35168884 113.8659668 60.34057617 C112.63628677 60.34101425 111.40660675 60.34145233 110.1396637 60.34190369 C106.77621288 60.3401741 103.41331725 60.32514875 100.04996467 60.30418181 C96.53192776 60.28540373 93.01388313 60.28366369 89.49580383 60.28010559 C82.8376974 60.27078842 76.17973909 60.24617918 69.52169782 60.21605712 C61.19613429 60.17921008 52.87054661 60.16280814 44.54492188 60.14648438 C29.69649926 60.1172814 14.84839975 60.05718254 0 60 C0 40.2 0 20.4 0 0 Z " fill="#FE9100" transform="translate(151,392)"/>
<path d="M0 0 C16.9228125 -0.1546875 16.9228125 -0.1546875 34.1875 -0.3125 C37.72364014 -0.35802002 41.25978027 -0.40354004 44.90307617 -0.45043945 C49.28771973 -0.47302246 49.28771973 -0.47302246 51.35322571 -0.47721863 C52.76773491 -0.48479738 54.18221592 -0.50217198 55.59651184 -0.52787781 C70.86022672 -0.79095587 82.45612858 2.96900017 93.671875 13.58203125 C100.65552363 20.97965905 105.14944573 30.70863687 105.09765625 40.859375 C105.09282227 42.53193359 105.09282227 42.53193359 105.08789062 44.23828125 C105.07532227 45.97658203 105.07532227 45.97658203 105.0625 47.75 C105.05798828 48.92433594 105.05347656 50.09867188 105.04882812 51.30859375 C105.03705094 54.20578072 105.02060326 57.10286454 105 60 C103.83790512 60.00364563 102.67581024 60.00729126 101.47850037 60.01104736 C90.51698591 60.04801813 79.55575185 60.10581384 68.59445095 60.18390274 C62.95935859 60.22338074 57.32442258 60.25556779 51.68920898 60.27099609 C46.24901535 60.28616032 40.80925153 60.32060231 35.36924934 60.36830902 C33.29571332 60.38312512 31.22211593 60.39104114 29.14852715 60.39188385 C26.23974878 60.39425451 23.33215726 60.42134279 20.42358398 60.45410156 C19.14288025 60.44655602 19.14288025 60.44655602 17.83630371 60.43885803 C12.10288971 60.53849902 8.6916666 61.64384804 4 65 C2.03816941 68.08380786 2.03816941 68.08380786 1 71 C0.67 71 0.34 71 0 71 C0 47.57 0 24.14 0 0 Z " fill="#D5E8FD" transform="translate(151,0)"/>
<path d="M0 0 C10.56 0 21.12 0 32 0 C34.475 4.95 34.475 4.95 37 10 C43.76773812 19.49241191 52.57381236 25.84324035 63.953125 28.52734375 C77.5021174 30.62917462 89.78636192 28.75344521 100.9765625 20.61328125 C108.67505135 14.47529689 111.22313965 9.55372071 116 0 C126.56 0 137.12 0 148 0 C144.47548488 14.09806047 144.47548488 14.09806047 141.375 20.0625 C141.0258252 20.73949951 140.67665039 21.41649902 140.31689453 22.11401367 C131.79734555 38.07917115 117.9428487 49.77160054 101 56 C99.90945312 56.41121094 98.81890625 56.82242188 97.6953125 57.24609375 C77.38276985 63.7832038 55.57649464 60.90226753 36.78515625 51.41381836 C29.83636868 47.63934775 24.45927656 42.65541823 19 37 C18.26265625 36.29359375 17.5253125 35.5871875 16.765625 34.859375 C8.82239395 26.79299308 0 11.57487185 0 0 Z " fill="#47568C" transform="translate(77,452)"/>
<path d="M0 0 C0.81027649 -0.00043808 1.62055298 -0.00087616 2.4553833 -0.00132751 C5.1230919 0.00075593 7.79016539 0.02406572 10.45776367 0.04760742 C12.31149451 0.05320496 14.1652298 0.05747431 16.01896667 0.06047058 C20.89017052 0.07190691 25.76110463 0.10136369 30.63220215 0.13458252 C35.60591992 0.16530952 40.57968141 0.17898154 45.5534668 0.1940918 C55.30684031 0.22623452 65.0600139 0.27741625 74.81323242 0.34057617 C74.55713908 2.32447306 74.30104574 4.30836995 74.04495239 6.29226685 C73.74520687 8.94189413 73.68084833 11.54991925 73.68823242 14.21557617 C73.6856543 15.14112305 73.68307617 16.06666992 73.68041992 17.02026367 C73.85852277 21.47283476 74.36983074 25.90655938 74.81323242 30.34057617 C54.35323242 30.34057617 33.89323242 30.34057617 12.81323242 30.34057617 C12.81323242 45.19057617 12.81323242 60.04057617 12.81323242 75.34057617 C2.91323242 75.34057617 -6.98676758 75.34057617 -17.18676758 75.34057617 C-17.34720282 59.10987799 -17.34720282 59.10987799 -17.38208008 52.17260742 C-17.40595925 47.44537316 -17.43415834 42.71844984 -17.48852539 37.99145508 C-17.5320991 34.17888616 -17.55592882 30.36665085 -17.56627655 26.55385208 C-17.57364738 25.10181047 -17.58804114 23.64978639 -17.60968781 22.19788742 C-17.63887734 20.15830284 -17.64271744 18.12008328 -17.64086914 16.08032227 C-17.64975159 14.92116302 -17.65863403 13.76200378 -17.66778564 12.56771851 C-16.93115211 7.62565615 -14.75971592 4.64324389 -10.94844055 1.48686218 C-7.2795109 -0.03599833 -3.90452825 -0.05554891 0 0 Z " fill="#29376C" transform="translate(303.186767578125,180.659423828125)"/>
<path d="M0 0 C10.56 0 21.12 0 32 0 C28.47548488 14.09806047 28.47548488 14.09806047 25.375 20.0625 C25.0258252 20.73949951 24.67665039 21.41649902 24.31689453 22.11401367 C14.99884085 39.57552423 -0.14443471 51.03257303 -18.7265625 57.24609375 C-27.15398982 59.7262633 -32.7068168 60 -42 60 C-42 50.1 -42 40.2 -42 30 C-38.04 29.34 -34.08 28.68 -30 28 C-18.15144409 24.65499952 -9.71074439 17.4296569 -3.15625 7.140625 C-1.72404665 4.58679671 -1.72404665 4.58679671 0 0 Z " fill="#29376D" transform="translate(193,452)"/>
<path d="M0 0 C27.72 0 55.44 0 84 0 C82.20364285 8.98178574 76.12671827 16.3485957 69 22 C57.05045088 29.17609408 45.34478808 31.92166809 31.48828125 29.34765625 C19.26868017 25.97822779 9.23043791 18.62874502 2.6171875 7.71875 C0 2.6673951 0 2.6673951 0 0 Z " fill="#D4E7FD" transform="translate(109,452)"/>
<path d="M0 0 C13.86 0 27.72 0 42 0 C42 9.9 42 19.8 42 30 C29.08425368 30 19.01998944 25.76449589 9.74609375 16.828125 C5.61308195 12.41348993 0 6.41450848 0 0 Z " fill="#EBF3FD" transform="translate(109,452)"/>
</svg>
